<?xml version="1.0" encoding="UTF-8" standalone="no"?><!DOCTYPE svg PUBLIC "-//W3C//DTD SVG 1.1//EN" "http://www.w3.org/Graphics/SVG/1.1/DTD/svg11.dtd"><svg width="100%" height="100%" viewBox="0 0 2034 375" version="1.1" xmlns="http://www.w3.org/2000/svg" xmlns:xlink="http://www.w3.org/1999/xlink" xml:space="preserve" xmlns:serif="http://www.serif.com/" style="fill-rule:evenodd;clip-rule:evenodd;stroke-linejoin:round;stroke-miterlimit:2;"><g id="_74e76027-f88f-40bd-9e0b-abc43af923a9" serif:id="74e76027-f88f-40bd-9e0b-abc43af923a9"><path d="M563.889,228.138l10.494,-110.288l28.806,-0l-14.814,136.831l-48.766,0l-7.407,-62.551l-2.675,-0l-5.556,62.551l-49.794,0l-15.844,-136.831l30.042,-0l11.111,110.288l3.292,-0l6.584,-65.432l43.21,-0l7.819,65.432l3.498,-0Zm53.292,-41.77c0,-23.182 5.144,-40.809 15.432,-52.88c10.425,-11.935 24.829,-17.902 43.21,-17.902c18.519,0 32.785,5.419 42.798,16.256c10.151,10.836 15.364,26.749 15.638,47.736l-1.029,21.194l-84.156,-0c1.783,20.713 12.14,31.07 31.07,31.07c13.306,-0 27.366,-2.401 42.181,-7.202l5.967,25.103c-6.173,2.195 -14.129,4.115 -23.868,5.761c-9.877,1.509 -17.97,2.263 -24.28,2.263c-41.975,0 -62.963,-23.799 -62.963,-71.399Zm59.877,-44.033c-9.054,0 -15.844,2.607 -20.371,7.819c-4.526,5.35 -7.064,14.198 -7.613,26.544l53.292,-0c0,-22.909 -8.436,-34.363 -25.308,-34.363Zm115.226,112.346l-28.807,0l0,-192.181l29.63,-0l0,65.432c11.934,-8.23 23.045,-12.346 33.333,-12.346c20.028,0 34.431,5.762 43.21,17.284c8.917,11.66 13.375,29.767 13.375,54.321c-0,24.692 -5.419,42.662 -16.255,53.91c-10.837,11.111 -25.241,16.666 -43.21,16.666c-8.231,0 -18.45,-2.949 -30.659,-8.847l-0.617,5.761Zm30.453,-111.111c-9.328,-0 -19.205,4.321 -29.63,12.963l0,64.815c11.523,5.761 21.879,8.642 31.07,8.642c9.191,-0 15.981,-3.498 20.37,-10.494c4.253,-7.133 6.379,-17.97 6.379,-32.51c-0,-28.944 -9.397,-43.416 -28.189,-43.416Zm173.251,84.568l10.493,-110.288l28.807,-0l-14.815,136.831l-48.765,0l-7.408,-62.551l-2.674,-0l-5.556,62.551l-49.794,0l-15.844,-136.831l30.041,-0l11.111,110.288l3.293,-0l6.584,-65.432l43.21,-0l7.819,65.432l3.498,-0Zm101.234,1.852c5.487,-0 11.454,-1.303 17.901,-3.91c6.585,-2.469 11.797,-5.212 15.638,-8.23l0,-20.165c-11.522,-0.96 -20.919,-1.44 -28.189,-1.44c-16.049,-0 -24.074,5.967 -24.074,17.901c-0,10.562 6.241,15.844 18.724,15.844Zm-4.527,27.777c-30.727,0 -46.09,-14.54 -46.09,-43.621c-0,-15.638 4.938,-26.543 14.815,-32.716c9.876,-6.31 23.594,-9.465 41.152,-9.465c8.23,0 17.627,0.48 28.189,1.44c0,-11.522 -1.646,-19.41 -4.938,-23.662c-3.292,-4.115 -8.985,-6.173 -17.078,-6.173c-7.956,-0 -17.353,0.96 -28.189,2.881c-10.7,1.92 -18.93,3.84 -24.692,5.761l-5.555,-27.366c20.164,-6.173 39.849,-9.26 59.053,-9.26c19.205,0 32.51,4.184 39.918,12.552c7.407,8.505 11.111,22.839 11.111,43.004l-0,58.436l3.086,25.309l-29.629,2.88l-2.881,-13.168c-16.049,8.779 -28.807,13.168 -38.272,13.168Zm126.749,-55.555l0,-57.819l-21.81,-0l-0,-26.543l21.81,-0l0,-32.922l29.63,-2.881l0,35.803l51.235,-0l-0,26.543l-51.235,-0l0,57.819c0,10.562 1.097,17.97 3.292,22.222c2.195,4.253 7.133,6.379 14.815,6.379c7.682,-0 17.901,-1.578 30.658,-4.733l4.939,25.926c-14.678,3.841 -27.161,5.761 -37.449,5.761c-18.518,0 -30.795,-4.115 -36.831,-12.345c-6.036,-8.231 -9.054,-22.634 -9.054,-43.21Zm227.778,-81.482l-4.321,27.572c-12.62,-3.429 -24.897,-5.144 -36.831,-5.144c-11.934,0 -20.576,3.293 -25.926,9.877c-5.35,6.722 -8.025,17.353 -8.025,31.893c0,14.678 2.332,25.857 6.996,33.539c4.527,7.819 13.238,11.728 26.132,11.728c12.894,0 25.446,-1.714 37.654,-5.144l4.321,27.572c-13.443,3.841 -27.709,5.762 -42.798,5.762c-42.799,-0 -64.198,-23.869 -64.198,-71.605c0,-47.874 21.262,-71.811 63.786,-71.811c16.05,0 30.453,1.921 43.21,5.761Zm65.844,33.128l-0,100.823l-29.836,0l0,-192.181l29.836,-0l-0,63.374c15.501,-6.858 27.64,-10.288 36.42,-10.288c16.598,0 28.257,4.802 34.979,14.404c6.859,9.602 10.288,23.594 10.288,41.975l0,82.716l-29.63,0l0,-83.333c0,-7.956 -1.577,-14.609 -4.732,-19.959c-3.155,-5.213 -7.339,-7.819 -12.552,-7.819c-9.465,-0 -21.056,3.429 -34.773,10.288Zm200.206,-91.358l29.218,-0l-0,168.313l2.88,23.868l-29.012,2.881l-2.675,-13.169c-12.483,8.916 -24.623,13.374 -36.42,13.374c-17.969,0 -31.413,-5.212 -40.329,-15.637c-9.053,-10.426 -13.58,-28.121 -13.58,-53.087c-0,-24.966 5.487,-43.484 16.461,-55.555c10.837,-11.935 25.034,-17.902 42.592,-17.902c10.151,0 20.439,2.195 30.865,6.585l-0,-59.671Zm-34.157,167.695c10.288,0 21.674,-5.212 34.157,-15.637l-0,-64.198c-10.014,-4.801 -19.822,-7.202 -29.424,-7.202c-19.068,0 -28.601,15.295 -28.601,45.885c-0,27.435 7.956,41.152 23.868,41.152Zm102.881,-97.325c9.876,-11.522 24.966,-17.284 45.267,-17.284c20.302,0 35.391,5.762 45.268,17.284c9.739,11.66 14.609,29.63 14.609,53.91c-0,24.142 -4.87,42.112 -14.609,53.909c-9.877,11.797 -24.966,17.696 -45.268,17.696c-20.301,-0 -35.391,-5.899 -45.267,-17.696c-9.74,-11.797 -14.609,-29.767 -14.609,-53.909c-0,-24.28 4.869,-42.25 14.609,-53.91Zm23.251,20.782c-3.978,6.722 -5.967,17.764 -5.967,33.128c-0,15.363 2.057,26.474 6.173,33.333c3.978,6.859 11.248,10.288 21.81,10.288c10.563,0 17.833,-3.429 21.811,-10.288c4.115,-6.859 6.173,-17.97 6.173,-33.333c-0,-15.364 -1.989,-26.406 -5.967,-33.128c-3.978,-6.721 -11.317,-10.082 -22.017,-10.082c-10.699,-0 -18.038,3.361 -22.016,10.082Zm225.309,-36.625l-0,104.526l1.028,39.712c0,16.599 -5.624,29.287 -16.872,38.066c-11.111,8.779 -26.132,13.169 -45.062,13.169c-19.067,-0 -37.517,-3.155 -55.35,-9.465l7.202,-26.543c17.284,5.761 31.55,8.642 42.798,8.642c11.386,-0 20.508,-1.921 27.367,-5.762c6.721,-3.978 10.082,-9.876 10.082,-17.695c-0,-1.646 -0.137,-4.733 -0.412,-9.259c-0.274,-4.39 -0.411,-7.888 -0.411,-10.494c-12.209,8.642 -24.074,12.963 -35.597,12.963c-17.695,-0 -31.138,-5.419 -40.329,-16.255c-9.328,-10.974 -13.992,-28.464 -13.992,-52.469c0,-23.869 5.281,-41.496 15.844,-52.881c10.425,-11.386 24.76,-17.078 43.004,-17.078c3.978,-0 9.122,0.96 15.432,2.88c6.173,1.921 11.385,3.978 15.638,6.173l0.617,-8.23l29.013,-0Zm-63.375,110.494c9.877,-0 21.125,-4.802 33.745,-14.404l-0,-59.259c-10.974,-6.859 -21.056,-10.288 -30.247,-10.288c-18.381,-0 -27.572,13.992 -27.572,41.975c-0,27.984 8.025,41.976 24.074,41.976Z" style="fill:#1f321d;fill-rule:nonzero;"/></g><g id="_83b75e6f-6f9f-4d85-9ac6-eb460033e681" serif:id="83b75e6f-6f9f-4d85-9ac6-eb460033e681"><path d="M187.5,375c103.559,0 187.5,-83.941 187.5,-187.5c0,-103.559 -83.941,-187.5 -187.5,-187.5c-103.559,0 -187.5,83.941 -187.5,187.5c0,103.559 83.941,187.5 187.5,187.5Zm-13.863,-299.754l23.437,0l0,104.133l104.145,-0l-0,23.437l-127.582,0l-0,-127.57Zm-69.832,5.121l23.437,0l0,167.379l167.379,0l0,23.438l-190.816,-0l-0,-190.817Z" style="fill:url(#_Linear1);fill-rule:nonzero;"/></g><defs><linearGradient id="_Linear1" x1="0" y1="0" x2="1" y2="0" gradientUnits="userSpaceOnUse" gradientTransform="matrix(339.865,158.482,-158.482,339.865,0,0)"><stop offset="0" style="stop-color:#00eee1;stop-opacity:1"/><stop offset="1" style="stop-color:#ffd233;stop-opacity:1"/></linearGradient></defs></svg>